/* XPM */
static char *f3b78f8d292d40b3dd9143501e108299nYvv8KJsuDWsz4tY[] = {
/* columns rows colors chars-per-pixel */
"32 32 149 2 ",
"   c #E4DFDB",
".  c #E4DFDA",
"X  c #E4DCD8",
"o  c #E0A3A1",
"O  c #DB6B6B",
"+  c #D95152",
"@  c #D84747",
"#  c #D84848",
"$  c #D95555",
"%  c #DC7272",
"&  c #E0ADAB",
"*  c #E4DEDA",
"=  c #E4DAD5",
"-  c #DC7C7A",
";  c #D63031",
":  c #D52022",
">  c #D52021",
",  c #D73737",
"<  c #DE8B89",
"1  c #E4DDD8",
"2  c #E5DFDB",
"3  c #E1B6B3",
"4  c #D73839",
"5  c #D84445",
"6  c #E2C6C3",
"7  c #E0A5A3",
"8  c #D6282A",
"9  c #D62E30",
"0  c #E2BBB8",
"q  c #E1BCB9",
"w  c #D6292B",
"e  c #E58786",
"r  c #EBACAA",
"t  c #EBADAA",
"y  c #EBAEAC",
"u  c #EBAFAD",
"i  c #EAA8A6",
"p  c #E48382",
"a  c #D83535",
"s  c #E3CAC7",
"d  c #E4DDD9",
"f  c #D83E3F",
"g  c #F1D8D4",
"h  c #F5F0EC",
"j  c #F5F1EC",
"k  c #F4EAE6",
"l  c #E37A79",
"z  c #DA5352",
"x  c #DE8A88",
"c  c #D83233",
"v  c #F5EFEB",
"b  c #F1D8D5",
"n  c #F2DEDB",
"m  c #DD5555",
"M  c #E0A9A6",
"N  c #D73A3B",
"B  c #E06666",
"V  c #F0D1CD",
"C  c #D93839",
"Z  c #EFCBC8",
"A  c #E9A5A3",
"S  c #D94D4D",
"D  c #E1B5B2",
"F  c #E89A98",
"G  c #E4807F",
"H  c #EDB9B6",
"J  c #E2C8C5",
"K  c #DD7978",
"L  c #EEC1BE",
"P  c #E06968",
"I  c #E89E9C",
"U  c #E79896",
"Y  c #DFA19E",
"T  c #DA5E5D",
"R  c #D52122",
"E  c #F3E5E1",
"W  c #DB4344",
"Q  c #DD5554",
"!  c #F4E7E4",
"~  c #DE5857",
"^  c #DD8482",
"/  c #D95252",
"(  c #DB4646",
")  c #E58A89",
"_  c #E69391",
"`  c #ECB6B3",
"'  c #F4ECE8",
"]  c #EBB2AF",
"[  c #D52224",
"{  c #DC7271",
"}  c #E37C7B",
"|  c #F5F0EB",
" . c #F4F0EB",
".. c #EAABA9",
"X. c #D72B2C",
"o. c #DC7270",
"O. c #DA5D5C",
"+. c #EBABA9",
"@. c #F3E7E2",
"#. c #F2DFDB",
"$. c #F1DAD6",
"%. c #EEC5C2",
"&. c #E79694",
"*. c #DC5051",
"=. c #DD807F",
"-. c #DD7D7C",
";. c #F0D0CC",
":. c #DF5D5D",
">. c #DFA19F",
",. c #E1B9B6",
"<. c #D62A2B",
"1. c #F5EDE9",
"2. c #E2CBC7",
"3. c #D84141",
"4. c #DE5B5B",
"5. c #F2DCD9",
"6. c #DA5657",
"7. c #DE9795",
"8. c #E6918F",
"9. c #EAA6A4",
"0. c #E1B3AF",
"q. c #E4DED9",
"w. c #ECB9B7",
"e. c #E27371",
"r. c #DB6968",
"t. c #E3CCC7",
"y. c #D73334",
"u. c #DA3E40",
"i. c #DB4445",
"p. c #D83F40",
"a. c #E3D4D0",
"s. c #E2BFBC",
"d. c #D63032",
"f. c #D83D3E",
"g. c #E2C7C3",
"h. c #D94B4A",
"j. c #E3D2CE",
"k. c #DF9B98",
"l. c #D73A3A",
"z. c #D84546",
"x. c #E0A6A4",
"c. c #E1B7B3",
"v. c #DE8B8A",
"b. c #DB6665",
"n. c #D95353",
"m. c #D95454",
"M. c #DB6A69",
"N. c #DE9190",
"B. c #E2BEBA",
/* pixels */
"  . .     .                     .     .     .     . .           ",
". . . . . .       . .   . .   .   . .     . .   . . . .     . . ",
"    . .   . . . .       .       .   . . . . .   .   . . .   .   ",
"  . .   . . . . . . .   . .     . . . . . . . . .   .   . .   . ",
". . . . .   . . . . . X o O + @ # $ % & *   . . . . . .         ",
". . .   . . . . . = - ; : : > : : : > > , < 1 .   . . .     2   ",
". . . . . .   . 3 4 > : > : : > : : : : : : 5 6   . .           ",
"    .   . . . 7 8 > > : > : : > > > > : > : : 9 0 . . .   . .   ",
"  . . . . . q w > : > : : e r t y u i p a : : > ; s .   .       ",
"  . . .   d f : > > > : : g h j h h h h k l : > : z *     .   . ",
"    . .   x > : > : > > c v h j b n h h h h m > > : M   .     . ",
".         N > : > > > > B j h V : : C Z h h A > > : S   .   .   ",
". .     D : : : : : : : F h h F : : : G h h H > > : > J         ",
"      . K : > : : : > : L h h P : : > I h h U > > : > Y .       ",
"        T : : : > > : R E h h W : : Q ! h h ~ > > : > ^ . .     ",
"  .     / : : > : > > ( h h h ) _ ` ' h h ] [ > : : > {         ",
"  .     / : > > > > > } h h | h | h  . ...X.: > > : > o.  .     ",
".   .   O.> > : > > : +.h h @.#.$.%.&.*.R > > > > > : =.        ",
".   . . -.: > : > > : ;.h | :.: > : : : : > > > > : : >..       ",
".   .   ,.: > : > : <.1.h h C : : : : : > > : > > : : 2.. .     ",
".   .     3.: > : : 4.h h 5.R : : > > : > : : > : : 6.. . .   . ",
"    .   . 7.: : > : 8.h h 9.> > : > > : > : : : : : 0.  . .   . ",
". .   . . q.S : : : w.h h e.> : : : : : : : : : : r.. . . . . . ",
". . . . .   t.y.> > u.i.i.X.> > : > > > : > : : p.a.. .   .   . ",
". . .   . . . s.d.: : : : > > : : > > : > : : f.2.  . . . . . . ",
". . . . . . . . g.h.: : : : : : : : > : : : O.j.  . . . . . .   ",
"* . . . * . . . . 1 k.l.R : > : : : > : z.x.q.. . . . . . . . . ",
"  . .   . . . . . . . q.c.v.b.n.m.M.N.B.q.. . .   . . .   . . . ",
".     . . . . . . . .   . . . . . . . . . . . . .   . . .   . . ",
". . . . . . . . . . * . . . . . . . . . . . . . . . . . . .   . ",
".   . . . .     . . . . . .   . . . . . . * . . . . . . . .   . ",
". .   . . . . . . * * . . . . . . . . . . . . . . .     .   . . "
};
