/* XPM */
static char *d0f2ebcf64c74f26965d27012b149b3daukwLiwnd7cGDITE[] = {
/* columns rows colors chars-per-pixel */
"64 64 123 2 ",
"   c #D52022",
".  c #D62728",
"X  c #D62C2D",
"o  c #D82F2F",
"O  c #D72F30",
"+  c #D73334",
"@  c #D83536",
"#  c #D73738",
"$  c #D73B3C",
"%  c #D93C3D",
"&  c #D94343",
"*  c #DC4D4E",
"=  c #DC5353",
"-  c #DB5C5C",
";  c #DD6464",
":  c #DB6C6B",
">  c #DB706E",
",  c #DC7473",
"<  c #DC7977",
"1  c #DC7C7B",
"2  c #E06464",
"3  c #E06867",
"4  c #E06A69",
"5  c #E27473",
"6  c #E37C7B",
"7  c #DD817F",
"8  c #DD8482",
"9  c #DE8887",
"0  c #DE8C8A",
"q  c #DE9392",
"w  c #DF9B99",
"e  c #E48583",
"r  c #E68D8C",
"t  c #E79392",
"y  c #E79997",
"u  c #DFA09E",
"i  c #E0A19F",
"p  c #E9A09E",
"a  c #DFA9A7",
"s  c #E0A4A2",
"d  c #EAA9A7",
"f  c #E0ADAA",
"g  c #EBACAA",
"h  c #E1B2AF",
"j  c #EBB1AF",
"k  c #E1B5B3",
"l  c #ECB6B4",
"z  c #E1B9B6",
"x  c #ECB8B5",
"c  c #E2BDBA",
"v  c #EDBDBA",
"b  c #E2C2BE",
"n  c #EEC1BE",
"m  c #E2C6C2",
"M  c #EEC3C1",
"N  c #E3CAC7",
"B  c #EFCAC7",
"V  c #E3CDC9",
"C  c #EFCDCA",
"Z  c #F0CECB",
"A  c #F0CFCC",
"S  c #F0CFCD",
"D  c #E3D0CD",
"F  c #E3D3CF",
"G  c #F0D1CD",
"H  c #F0D0CE",
"J  c #F0D1CE",
"K  c #F0D2CE",
"L  c #F0D2CF",
"P  c #E3D4D0",
"I  c #E3D5D0",
"U  c #E3D6D2",
"Y  c #E4D5D1",
"T  c #E4D6D2",
"R  c #E4D7D3",
"E  c #E3D8D4",
"W  c #E3D9D4",
"Q  c #E3DAD6",
"!  c #E4D9D5",
"~  c #E4D9D6",
"^  c #E4DAD6",
"/  c #E4DBD7",
"(  c #E3DCD7",
")  c #E4DCD7",
"_  c #E3DDD9",
"`  c #E3DED9",
"'  c #E3DEDA",
"]  c #E3DFDA",
"[  c #E4DCD8",
"{  c #E4DDD8",
"}  c #E4DED9",
"|  c #E4DDDA",
" . c #E4DEDA",
".. c #E4DFDA",
"X. c #E4DEDB",
"o. c #E4DFDB",
"O. c #E5DFDB",
"+. c #E4DFDA",
"@. c #F0D4D0",
"#. c #F0D4D1",
"$. c #F1D8D4",
"%. c #F1D9D5",
"&. c #F2DBD8",
"*. c #E4E0DA",
"=. c #E4E0DB",
"-. c #E5E0DB",
";. c #F2E0DC",
":. c #F3E3DF",
">. c #F3E4E0",
",. c #F3E5E1",
"<. c #F3E7E3",
"1. c #F4E7E3",
"2. c #F4E9E5",
"3. c #F4EAE5",
"4. c #F4EDE8",
"5. c #F5EEEA",
"6. c #F4EFEB",
"7. c #F5EFEB",
"8. c #F4F0EB",
"9. c #F5F0EB",
"0. c #F4F0EC",
"q. c #F5F0EC",
"w. c #F5F1EC",
/* pixels */
"o.o.o.o.o.o.o.o.o.o.o.o.o.o.o.o.o.o.o.o.o.o.o.o.o.o.o.o.o.o.o.o.o.o.o.o.o.o.o.o.o.' o.o.o.o.o.o.o.o.o.o.o.' o.o.o.o.o.o.o.o.o.o.",
"o.o.o.o.o.o.o.o.o.o.o.o.o.o.o.o.o.' o.o.o.o.o.o.o.o.o.o.o.o.o.o.o.o.o.o.' o.o.o.o.o.o.o.o.o.o.o.o.o.o.o.o.o.o.o.o.o.o.o.o.o.o.o.",
"o.o.o.o.o.o.o.o.o.o.o.o.o.o.o.o.o.o.o.o.o.o.o.o.o.o.o.' o.o.o.o.o.o.o.o.o.o.o.o.o.o.o.o.o.o.o.o.o.o.o.o.o.o.o.o.o.o.o.o.o.o.o.o.",
"o.o.o.o.o.o.o.o.o.o.o.o.o.o.o.o.o.o.o.o.o.o.o.o.' o.o.o.o.o.o.o.o.o.o.o.o.o.' o.o.o.o.o.' o.o.o.' o.o.o.o.o.o.o.o.o.o.o.o.o.o.o.",
"o.o.o.o.o.o.o.o.o.o.o.o.o.o.o.o.o.o.o.o.o.o.o.o.o.o.o.o.=.o.o.o.o.o.o.o.' o.' o.o.o.o.o.o.o.o.o.o.o.o.o.o.o.o.o.o.o.o.o.o.o.o.o.",
"o.o.o.o.o.o.o.o.o.o.o.o.o.o.' o.o.o.o.o.o.o.' o.o.o.o.o.o.o.o.o.o.o.o.o.o.o.o.o.o.o.o.o.o.o.o.o.o.o.o.o.o.o.o.o.o.o.o.o.o.o.o.o.",
"o.o.o.o.' o.o.o.o.o.o.' o.o.o.o.o.o.o.o.o.' o.o.o.o.o.o.o.o.o.o.o.o.o.o.o.o.o.o.o.o.o.o.o.o.o.o.o.o.o.o.o.' o.o.o.o.o.o.o.o.o.o.",
"o.o.o.o.o.o.o.o.o.' ' o.o.o.o.o.o.o.o.o.o.o.o.o.' o.o.o.o.o.o.o.o.o.o.o.o.o.o.o.o.o.o.o.' o.o.o.o.o.o.o.o.o.o.o.o.o.o.o.o.o.o.o.",
"o.o.' o.o.o.o.o.o.o.o.o.o.o.o.' o.o.o.o.' o.o.o.o.o.o.b w 8 > : : , 9 s V o.o.o.o.o.o.o.o.o.o.o.o.o.o.o.o.o.o.o.o.o.o.o.o.o.o.o.",
"o.o.' o.o.o.o.o.o.o.' o.o.o.o.o.o.' o.o.o.o.o.P 0 = X                     @ - w ~ o.o.o.o.' o.o.o.o.o.o.o.o.o.o.o.o.o.o.o.o.o.o.",
"o.o.o.o.' o.o.o.o.o.o.o.' o.o.o.o.o.o.o.o.c - .                                 X : V o.o.o.o.o.o.o.o.o.o.o.o.o.o.o.o.o.o.o.o.o.",
"o.o.o.o.o.o.o.o.o.o.o.o.o.o.' o.o.o.o.N -                                           . , R o.o.o.o.o.o.o.o.o.o.o.o.o.o.o.o.o.o.o.",
"o.o.o.o.' o.o.o.o.o.o.o.o.o.o.o.o.o.0 X                                                 @ s o.o.o.o.o.o.' o.o.o.o.o.o.o.o.o.o.o.",
"o.o.o.o.o.o.o.o.o.o.o.o.o.o.o.o.~ -                                                         , o.o.o.o.o.o.o.o.o.o.o.o.o.o.o.o.o.",
"o.o.o.o.o.o.o.o.o.o.o.o.' o.o.D &                                                             - ~ o.o.o.o.o.o.o.o.o.o.o.o.o.o.o.",
"o.o.o.o.o.o.o.o.o.o.o.o.o.o.P %                                                                 = ~ o.o.' ' o.o.o.o.o.o.o.o.o.o.",
"o.o.o.o.o.o.o.o.o.o.o.o.o.' *                       X * * * * = = = = = * @                       ; o.o.o.o.o.o.o.o.o.o.o.o.o.o.",
"o.o.o.o.o.o.o.o.o.' o.o.o.:                         6 q.q.q.q.q.q.q.q.q.q.q.,.v 5 .                 0 o.o.o.o.o.o.o.o.=.o.o.o.o.",
"o.o.o.o.o.o.o.o.o.o.o.o.i                           g q.q.q.q.q.q.q.q.q.q.q.q.q.q.%.-               . c o.o.o.o.o.o.o.o.o.o.o.o.",
"o.o.o.o.o.o.o.o.o.o.o.R +                           A q.q.q.q.q.q.q.q.q.q.q.q.9.q.q.5.5               & o.o.o.o.o.o.o.o.o.o.o.o.",
"o.o.o.o.o.o.' o.o.o.o.,                           X 5.q.q.q.q.q.q.q.q.q.q.q.q.q.q.q.q.5.=               w o.o.o.o.o.o.o.o.o.o.o.",
"o.o.o.o.o.o.o.o.o.o.R X                           - q.q.q.q.q.q.n n M #.5.q.q.q.q.q.q.q.L               @ ~ o.o.o.o.o.o.o.o.o.o.",
"o.o.o.' o.=.o.o.o.o.1                             r q.q.q.q.q.A         X 5 1.q.q.q.q.q.q.*               s o.o.o.o.o.o.o.o.o.o.",
"o.o.o.o.o.o.o.o.o.o.#                             x q.q.q.q.q.y             - q.q.q.q.q.q.5               = o.o.o.o.o.o.o.o.o.o.",
"o.o.o.o.o.o.=.o.o.k                               &.q.q.q.q.q.3               L q.q.q.q.q.e                 N o.o.o.o.o.o.o.o.o.",
"o.o.o.o.o.o.o.o.o.:                             @ q.q.q.q.q.q.&               n q.q.q.q.q.6                 w o.o.o.o.o.o.o.o.o.",
"o.o.o.o.' o.o.o.o.&                             4 q.q.q.q.q.2.                %.q.q.q.q.q.;                 ; o.o.o.o.o.o.o.o.o.",
"o.o.o.o.o.o.o.o.~                               p q.q.q.q.q.l               = q.q.q.q.q.q.&                 + =.o.o.o.o.o.o.o.o.",
"o.o.o.o.o.o.o.o.c                               M q.q.q.q.q.6             . B q.q.q.q.q.#.                    D o.o.o.o.o.o.o.o.",
"o.o.o.o.o.o.o.o.s                               2.q.q.q.q.q.=           X v q.q.q.q.q.q.5                     m ' o.o.o.o.o.o.o.",
"o.o.o.o.o.o.o.o.q                             * q.q.q.q.q.q.+       & r :.q.q.q.q.q.q.L X                     z o.o.o.o.o.o.o.o.",
"o.o.o.' o.o.o.o.9                             e q.q.q.q.q.q.A L %.2.q.q.q.9.9.q.q.q.2.&                       f o.o.o.o.o.o.o.o.",
"o.o.o.o.o.o.o.o.9                             j q.q.9.q.q.9.q.q.9.q.q.q.9.9.9.q.9.,.=                         f o.o.o.o.o.o.o.o.",
"o.o.o.o.o.o.o.o.q                             #.q.q.q.q.9.9.9.9.9.9.9.9.9.9.9.9.n %                           k o.o.' o.o.o.o.o.",
"o.o.o.o.o.o.o.o.s                           O 5.q.q.q.9.9.9.9.9.5.9.5.9.9.9.M ;                               c o.o.o.o.o.o.o.o.",
"o.o.o.o.o.o.o.o.z                           2 q.q.q.9.q.9.L C Z B n g r 2 %                                   V o.o.o.o.o.o.o.o.",
"o.o.o.o.o.o.o.o.~ .                         y q.9.9.9.9.B                                                   X o.o.o.o.o.o.o.o.o.",
"o.o.o.o.o.o.o.o.o.&                         v q.q.q.9.q.t                                                   ; o.o.o.o.o.o.o.o.o.",
"o.o.o.o.o.o.o.o.' :                         :.9.9.9.9.9.;                                                   w o.o.o.o.o.o.o.o.o.",
"o.o.' o.o.' o.o.' k                       & q.q.q.q.q.q.&                                                   N ' o.o.o.o.o.o.o.o.",
"o.o.o.o.o.o.o.o.o.o.%                     6 q.q.q.q.q.,.                                                  - o.o.o.o.o.o.o.o.o.o.",
"o.o.o.o.' o.o.o.o.o.8                     d q.q.q.q.q.j                                                   f o.o.o.o.o.o.o.o.o.o.",
"o.o.o.o.' o.o.o.o.o.E +                   C q.q.q.q.q.6                                                 & o.o.o.o.o.o.o.o.o.o.o.",
"' o.o.o.o.o.o.o.o.o.o.8                 . 5.q.q.q.q.q.=                                                 f o.o.o.o.o.o.' o.o.o.o.",
"o.o.o.o.o.o.o.o.o.o.o.) &               = q.q.q.q.q.q.o                                               - o.o.o.o.o.o.o.o.o.o.o.o.",
"o.o.o.o.o.o.o.o.o.o.o.o.z .             r q.q.q.q.q.L                                               X V o.o.o.o.o.' o.o.o.o.o.o.",
"o.o.o.o.' o.o.' o.o.o.o.o.9             = 4 4 4 4 4 =                                               f o.o.o.o.o.o.o.' o.o.o.o.o.",
"o.o.o.o.o.o.o.o.o.' o.o.o.o.:                                                                     9 o.o.o.o.o.o.o.o.o.o.o.o.o.o.",
"o.o.o.o.o.' o.o.o.o.o.o.o.o.o.-                                                                 < ' o.o.o.o.o.o.o.o.o.o.o.o.o.o.",
"o.o.o.o.o.o.o.o.o.o.o.o.o.o.o.o.;                                                             8 o.o.o.o.o.o.o.o.' o.o.o.o.o.o.o.",
"' o.o.o.o.o.o.o.o.o.o.' o.o.o.o.o.7                                                       . u o.o.o.o.o.o.o.o.o.' o.o.o.o.o.o.o.",
"o.o.o.o.o.' o.' o.o.o.o.o.o.o.o.o.o.h @                                                 & b o.o.o.o.o.o.o.o.o.' o.o.o.o.o.o.o.o.",
"o.' o.o.o.o.o.o.o.o.o.o.o.o.o.o.o.o.o.P 1 .                                         X q E ' o.o.o.o.o.o.' o.o.o.o.o.o.o.o.o.o.o.",
"' ' o.o.o.o.o.o.' o.o.' o.o.o.o.' o.' o.o.V 7 X                                 # 0 P o.o.o.o.o.' o.o.o.o.o.o.o.o.o.o.o.o.' o.o.",
"o.o.o.o.o.o.o.o.o.' o.' ' o.o.o.o.o.o.o.o.' o.E a : +                     # < h ( ' o.o.o.o.o.o.' o.o.o.o.o.o.' o.o.o.o.o.o.o.o.",
"o.o.o.o.o.o.o.o.o.o.o.o.' o.o.o.o.o.o.o.o.o.o.o.o.o.o.m f w 9 8 8 0 w h V o.o.o.o.o.o.o.o.o.o.o.o.o.o.' o.o.o.o.o.o.o.o.o.o.o.o.",
"o.o.o.o.o.o.o.o.o.o.o.' o.o.o.o.o.o.' o.o.o.o.o.o.o.o.' ' o.o.o.o.o.o.o.o.o.o.o.o.o.o.o.o.o.o.o.o.o.o.o.o.o.o.o.o.o.o.o.o.o.o.o.",
"o.o.o.o.o.o.o.' o.' ' o.o.o.' o.o.' ' o.o.o.o.o.o.o.o.o.o.o.' o.o.o.o.o.o.o.o.' o.o.o.o.o.o.o.o.o.o.o.' o.' o.o.o.o.o.o.o.o.' o.",
"o.o.o.o.o.o.o.o.o.o.o.o.o.o.o.o.o.o.o.o.o.o.o.o.o.o.' o.' o.o.o.o.o.o.o.o.o.o.o.o.o.o.o.o.o.o.o.o.o.o.o.o.o.o.o.o.o.o.o.o.o.o.o.",
"o.o.o.o.o.o.o.o.o.o.o.' o.o.o.o.o.o.o.o.o.o.o.o.o.o.o.o.o.o.o.o.o.o.o.o.o.' o.o.o.o.o.o.o.o.o.o.o.o.o.o.o.o.o.o.o.o.o.o.o.o.o.o.",
"o.o.o.o.o.o.o.o.o.o.o.o.o.o.o.o.o.' o.o.o.o.' o.o.o.o.' o.o.o.o.o.o.o.o.o.o.' o.' o.o.o.o.o.o.o.o.o.o.o.o.o.o.o.o.o.o.o.o.o.o.o.",
"' o.o.o.o.o.o.o.' o.o.o.o.o.o.o.o.o.' o.o.o.o.o.o.o.o.o.o.o.o.o.o.o.o.o.o.o.' o.o.' o.' o.o.o.o.o.o.o.o.o.o.o.' o.o.o.o.o.o.o.o.",
"o.o.o.o.o.o.o.o.o.o.o.o.o.o.o.o.' o.o.o.o.o.o.o.' o.o.o.o.o.o.o.o.o.o.' ' o.o.o.o.o.o.o.' o.o.o.o.o.o.o.o.o.o.o.o.o.o.o.o.o.o.o.",
"o.o.o.o.o.o.o.o.o.o.o.o.o.o.o.o.o.o.o.' o.o.o.o.o.o.o.' o.o.o.o.o.o.o.o.o.o.o.o.o.o.o.o.o.' o.o.o.o.o.o.o.o.o.o.o.o.' o.o.o.o.o."
};
