/* XPM */
static char *_c3b993af1f04bcb9bd899a4b799d006hyFVQ4ynfb6wmaNy[] = {
/* columns rows colors chars-per-pixel */
"16 16 71 1 ",
"  c #E4DFDB",
". c #E4DFDA",
"X c #E4DED9",
"o c #DE8F8D",
"O c #D94E4E",
"+ c #D73637",
"@ c #D73739",
"# c #D95353",
"$ c #DF9B99",
"% c #E3D0CC",
"& c #D84646",
"* c #D52022",
"= c #D52021",
"- c #D95354",
"; c #E4D6D2",
": c #D94949",
"> c #E27372",
", c #F0CFCB",
"< c #F0CFCC",
"1 c #EEC4C2",
"2 c #E27473",
"3 c #DA5D5D",
"4 c #DE9795",
"5 c #EBADAA",
"6 c #F4E8E4",
"7 c #E16D6C",
"8 c #ECB6B4",
"9 c #F5F0EC",
"0 c #DC4C4C",
"q c #E1B1AE",
"w c #D95454",
"e c #F0D1CD",
"r c #ECB6B3",
"t c #DE595A",
"y c #DE5B5B",
"u c #DC7170",
"i c #D73C3D",
"p c #D72B2C",
"a c #F5EEE9",
"s c #E99F9D",
"d c #E06666",
"f c #F0D0CD",
"g c #F2E0DC",
"h c #D72D2D",
"j c #D94D4D",
"k c #DE5D5D",
"l c #F4EAE5",
"z c #F2E0DB",
"x c #EAABA9",
"c c #DA3D3E",
"v c #D95757",
"b c #E69391",
"n c #D83536",
"m c #DC7574",
"M c #DFA2A0",
"N c #EDBBB8",
"B c #F1D7D4",
"V c #E1B9B5",
"C c #DA5858",
"Z c #E48180",
"A c #E16C6B",
"S c #E4D7D3",
"D c #DA5A59",
"F c #DB6D6D",
"G c #E4DAD6",
"H c #E0AAA7",
"J c #DB6464",
"K c #D83E3E",
"L c #D84041",
"P c #DB6B6B",
"I c #E0B3AF",
/* pixels */
" .    .     .. .",
"  ..    ...    .",
".  .XoO+@#$. .  ",
" ..%&***=**-;.  ",
" ..:=*>,<12*3   ",
"  4*==567890*q  ",
"  w***er*t9y*u  ",
"  i*=pasdfgh*j  ",
"  i*=k9lzxc==j  ",
"  v*=b9n**=**m  ",
"  M**NB******V. ",
"...C*ZA=****u.. ",
"...SD******FG...",
". ...HJKLPI.....",
"   ...........  ",
"  . .........  ."
};
